# xmcd
#
# Track frame offsets:
# 150
# 21357
# 42855
# 64627
# 85075
# 102107
# 117050
# 144774
# 170560
# 194545
# 211041
# 229284
# 252459
# 271190
#
# Disc length: 4034 seconds
#
#
# Revision: 0
# Processed by: cddbd v1.5.2PL0 Copyright (c) Steve Scherf et al.
# Submitted via: FreeRIP 2.96 
#
DISCID=b90fc00e
DTITLE=The Gasman - 001
DYEAR=2007
DGENRE=Acid
TTITLE0=Spark
TTITLE1=Flash2
TTITLE2=Service
TTITLE3=Budgie
TTITLE4=Click
TTITLE5=Glib
TTITLE6=Music centre
TTITLE7=Jexin
TTITLE8=Bonnet
TTITLE9=Clack
TTITLE10=Prickle
TTITLE11=Rubber ring - lull
TTITLE12=Custom drummer
TTITLE13=Temetix
EXTD=
EXTT0=
EXTT1=
EXTT2=
EXTT3=
EXTT4=
EXTT5=
EXTT6=
EXTT7=
EXTT8=
EXTT9=
EXTT10=
EXTT11=
EXTT12=
EXTT13=
PLAYORDER=
